# xmcd
# Track frame offsets:
# 150
# 14831
# 25605
# 40164
# 53938
# 66558
# 80108
# 93395
# 105785
# 116001
# 128169
# 141652
# 151854
# 164970
# 178607
# 186011
# 199057
# 212063
# 225317
# 239081
# 252139
# 264417
# 277479
# 289788
# 303983
# 316107
# 330157
# 343699
#
# Disc length: 4774 seconds
# Revision: 0
# Processed by: cddbd v1.5.2PL0 Copyright (c) Steve Scherf et al.
# Submitted via: VisiTrax 2.11.3.279 - For more info visit www.synapsa.com
#
DISCID=a112a41c
DTITLE=Various (1920's-1960's) Gospel and Jazz and Blues and Soul and R&B  Artist
DTITLE=s - From Sacred To Secular - A Soul Awakening: CD1 of 8 "Wade In The W
DTITLE=ater": *ReMastered Tracks
DYEAR=1927
DGENRE=Soul
TTITLE0=Arizona Dranes - Ill Go Where You Want Me To Go*
TTITLE1=Sister Mary Nelson - Judgement*
TTITLE2=Bessie Smith - Moan You Moaners*
TTITLE3=Blind Willie Johnson - Lord I Just Can't Keep From Cryin'*
TTITLE4=Golden Gate Jubilee Quartet The - Every Time That I Feel The Spirit*
TTITLE5=Rev. R V Gates - This Heart Of Mine*
TTITLE6=Sister Rosetta Tharp - How Far From God*
TTITLE7=George Peach with Lois Russell - I'm Waiting For Jesus*
TTITLE8=Pilgrim Travelers The - I'm Standing On The Highway*
TTITLE9=Sister Rosetta Tharp - Beams Of Heaven*
TTITLE10=Ethel Davenport with Brownie McGhee - I'm Tired*
TTITLE11=Prof. J Earle Hines - How Sweet It Is*
TTITLE12=Sister Mathews - Stand By Me*
TTITLE13=T-Bone Walker - Call It Stormy Monday*
TTITLE14=Cora Martin - There's A Place*
TTITLE15=Jackson Gospel Singers The - Heaven Bound Train*
TTITLE16=Wynona Carr - Lord Jesus*
TTITLE17=Billy Wright - Stacked Deck*
TTITLE18=Dominoes The - Do Something For Me*
TTITLE19=Five Blind Boys Of Mississippi The - He's My Rock*
TTITLE20=Mahalia Jackson - Just Over The Hill*
TTITLE21=Percy Mayfield - Please Send Me Someone To Love*
TTITLE22=Roy Brown - Love Don't Love Nobodyy*
TTITLE23=Clara Ward - Salvation Is Free*
TTITLE24=Jesse May Renfro - In That Home By And By*
TTITLE25=Little Miss Cornshucks - Try A Little Tenderness*
TTITLE26=Little Esther - I'll Be There*
TTITLE27=Ruth Davis - When He Spoke*
EXTD=Eight CD's in a book style holder. Discs and Tracks in chronological o
EXTD=rder with a 35 page central section with alternate pages of Track Info
EXTD=rmation and Performer Photo's\nCompiled, ReMastered and Presented: Histor
EXTD=y Of Soul Records: 2015
EXTT0=
EXTT1=
EXTT2=
EXTT3=
EXTT4=
EXTT5=
EXTT6=
EXTT7=
EXTT8=
EXTT9=
EXTT10=
EXTT11=
EXTT12=
EXTT13=
EXTT14=
EXTT15=
EXTT16=
EXTT17=
EXTT18=
EXTT19=
EXTT20=
EXTT21=
EXTT22=
EXTT23=
EXTT24=
EXTT25=
EXTT26=
EXTT27=
PLAYORDER=
